<?xml version="1.0" encoding="utf-8"?>
<!-- Generator: Adobe Illustrator 22.0.1, SVG Export Plug-In . SVG Version: 6.00 Build 0)  -->
<svg version="1.1" id="Layer_1" xmlns="http://www.w3.org/2000/svg" xmlns:xlink="http://www.w3.org/1999/xlink" x="0px" y="0px"
	 viewBox="0 0 774 331.8" style="enable-background:new 0 0 774 331.8;" xml:space="preserve">
<style type="text/css">
	.st0{clip-path:url(#SVGID_2_);}
	.st1{clip-path:url(#SVGID_4_);}
	.st2{fill:#F2746D;}
	.st3{fill:#BEDA7F;}
	.st4{fill:#A9C0E3;}
</style>
<g>
	<defs>
		<rect id="SVGID_1_" x="-113" y="-349.8" width="1000" height="1000"/>
	</defs>
	<clipPath id="SVGID_2_">
		<use xlink:href="#SVGID_1_"  style="overflow:visible;"/>
	</clipPath>
	<g class="st0">
		<defs>
			<rect id="SVGID_3_" x="-113" y="-349.8" width="1000" height="1000"/>
		</defs>
		<clipPath id="SVGID_4_">
			<use xlink:href="#SVGID_3_"  style="overflow:visible;"/>
		</clipPath>
		<g class="st1">
			<path class="st2" d="M573.7,35.1c3,0,5.4-2.4,5.4-5.4c0-3-2.4-5.4-5.4-5.4c-3,0-5.4,2.4-5.4,5.4
				C568.3,32.6,570.7,35.1,573.7,35.1"/>
			<path class="st2" d="M574.1,2c-43.8,0-79.3,35.5-79.3,79.3s35.5,79.3,79.3,79.3c43.8,0,79.3-35.5,79.3-79.3S617.9,2,574.1,2
				 M593.1,61.1c0,6.2-5,11.1-11.1,11.1s-11.1-5-11.1-11.1c0-6.2,5-11.1,11.1-11.1S593.1,54.9,593.1,61.1 M573.7,18.3
				c6.3,0,11.4,5.1,11.4,11.4S579.9,41,573.7,41s-11.4-5.1-11.4-11.4S567.4,18.3,573.7,18.3 M610.9,106c-0.3,0.8-7.2,18.7-24,18.7
				c-0.3,0-0.6,0-1,0c-11.1-0.4-21.4-10.6-27.3-17.8c0,0.2,0,0.4,0,0.6c2.3,21.1,23.2,38.1,23.4,38.3c1.3,1,1.5,2.9,0.5,4.2
				c-0.6,0.7-1.5,1.1-2.3,1.1c-0.7,0-1.3-0.2-1.9-0.7c-0.9-0.8-23-18.7-25.6-42.3c-2-18.6,8.4-30.1,13.6-34.7
				c-14.8-16.3-16.3-45-16.4-46.5c-0.1-1.6,1.2-3,2.8-3.1c1.7-0.1,3,1.2,3.1,2.8c0,0.4,2.1,38.7,23.1,49.1
				c7.3,3.6,13.2,3.5,16.7-0.2c4.8-5.2,4.5-15.9-0.5-24.5c-0.8-1.4-0.4-3.3,1-4.1c1.4-0.8,3.3-0.4,4.1,1c6.5,10.9,6.4,24.5-0.2,31.6
				c-2,2.1-5.6,4.8-11.4,4.8c-3.4,0-7.4-0.9-12.3-3.3c-2-1-3.9-2.2-5.7-3.6c-3.2,2.7-9.8,9.3-11.7,19.9c2.9,4.1,15.1,20.8,27.2,21.3
				c13.1,0.5,18.9-14.2,19.1-14.8c0.6-1.5,2.3-2.3,3.8-1.7C610.7,102.7,611.4,104.5,610.9,106"/>
			<path class="st3" d="M196.1,125.9c-3.1,0-5.6,2.5-5.6,5.6c0,3.1,2.5,5.6,5.6,5.6c3.1,0,5.6-2.5,5.6-5.6
				C201.7,128.4,199.1,125.9,196.1,125.9"/>
			<path class="st3" d="M199.9,2c-43.8,0-79.3,35.5-79.3,79.3c0,43.8,35.5,79.3,79.3,79.3c43.8,0,79.3-35.5,79.3-79.3
				C279.2,37.5,243.7,2,199.9,2 M198.3,25.8c7.5,0,13.6,6.1,13.6,13.6c0,7.5-6.1,13.6-13.6,13.6s-13.6-6.1-13.6-13.6
				C184.7,31.8,190.8,25.8,198.3,25.8 M196.1,144.2c-7,0-12.8-5.7-12.8-12.8c0-7,5.7-12.8,12.8-12.8c7,0,12.8,5.7,12.8,12.8
				C208.8,138.5,203.1,144.2,196.1,144.2 M231.4,121.4c-0.8,0.1-1.6,0.1-2.5,0.1c-15.8,0-32.2-15.4-38.6-22.1
				c-0.8,0.9-1.6,1.8-2.5,2.6c-18.6,18.1-15.8,34.5-14.4,39.1c0.5,1.9-0.6,3.9-2.5,4.4c-0.3,0.1-0.7,0.1-1,0.1c-1.6,0-3-1-3.4-2.6
				c-1.6-5.6-5.1-25.4,16.3-46.3c12.3-12,16.4-25.8,17.8-33.1c-0.3,0.1-0.6,0.2-0.9,0.3c-3,0.9-6.3,2-9.9,3.1
				c-8.8,2.7-15.6,1.9-20.2-2.4c-8.5-7.9-5.1-24.3-4.7-26.2c0.4-1.9,2.4-3.1,4.3-2.7c1.9,0.4,3.1,2.4,2.7,4.3
				c-0.9,3.9-2.1,15,2.6,19.3c2.6,2.4,7,2.7,13.2,0.8c3.6-1.1,6.8-2.1,9.8-3c2.1-0.7,4.1-1.3,6-1.9c0,0,0.1,0,0.1,0
				c16.3-5,25.3-6.4,33.2,4.8c10,14.2-7.1,32.1-7.8,32.9c-0.7,0.7-1.6,1.1-2.6,1.1c-0.9,0-1.8-0.3-2.5-1c-1.4-1.4-1.5-3.7-0.1-5.1
				c0.1-0.1,13.7-14.4,7.1-23.7c-4.8-6.7-9.1-6.9-22.8-2.8C207.6,67,205,80.5,195,93.8c5.5,5.9,21.9,21.9,35.6,20.4
				c16-1.7,22.1-28.7,22.2-29c0.4-1.9,2.3-3.2,4.3-2.7c1.9,0.4,3.2,2.3,2.7,4.3C259.5,88.1,252.6,119.1,231.4,121.4"/>
			<path class="st4" d="M387,2c-43.8,0-79.3,35.5-79.3,79.3c0,43.8,35.5,79.3,79.3,79.3c43.8,0,79.3-35.5,79.3-79.3
				C466.3,37.5,430.8,2,387,2 M354.1,27.5c7.5,0,13.6,6.1,13.6,13.6c0,7.5-6.1,13.6-13.6,13.6c-7.5,0-13.6-6.1-13.6-13.6
				C340.5,33.6,346.6,27.5,354.1,27.5 M445.6,118c-0.2,0-0.5,0-0.7-0.1c-18.5-3.6-30.3-20.6-36.1-31.4c-4.9,5.6-14.6,8.2-22.4,10.4
				c-4.6,1.3-14.2,3.9-14.2,6c0.3,8.2,10.7,21.7,14.6,26.2c1.3,1.5,1.2,3.8-0.3,5.2c-0.7,0.6-1.6,0.9-2.4,0.9c-1,0-2-0.4-2.7-1.2
				c-1.6-1.8-16.1-18.4-16.5-30.8c-0.3-7.8,9.4-10.5,19.6-13.3c12.6-3.5,21.3-6.4,20-13.1c-2.7-13.1-21.4-20.1-28.5-22.2
				c-1.4,2.5-2.6,5-3.7,7.2c-2.5,5-4.7,9.3-6.7,11.8c-2.2,2.6-6,3.6-10.5,3.6c-10,0-23.1-4.8-28.1-6.8c-1.9-0.7-2.8-2.9-2-4.8
				c0.7-1.9,2.9-2.8,4.8-2c13.7,5.4,28.1,8,30.2,5.4c1.5-1.8,3.6-6,5.8-10.4c6-12,13.5-26.9,24.3-28.6c14.4-2.3,28.7,9.9,29.3,10.5
				c1.5,1.3,1.7,3.6,0.4,5.2c-1.3,1.5-3.6,1.7-5.2,0.4c-0.1-0.1-12.3-10.5-23.4-8.8c-4,0.6-7.9,5.3-11.4,10.9
				c9.1,3,28.3,11.1,31.8,26.9c0.9,2.2,12.5,31.5,34.8,35.9c2,0.4,3.3,2.3,2.9,4.3C448.9,116.8,447.4,118,445.6,118"/>
			<path class="st3" d="M6.5,255.5c0.3-0.6,0.7-1,1.2-1.2c0.5-0.2,1-0.4,1.4-0.5c0.6-0.1,1.1-0.1,1.6,0c0.4,0.2,0.6,0.5,0.7,0.7
				c0.1,0.3,0.2,0.6,0.2,1.1v3.9c0,1.3,0,2.6,0.1,4c0,2.2,0.5,4.3,1.2,6.3c0.8,1.9,1.8,3.8,3.2,5.5c0.9,1.1,2.1,2,3.7,2.4
				c2.9,1,5.7,1.2,8.3,0.7c2.6-0.5,5.2-1.6,7.7-3.2c0.6-0.4,1.1-0.8,1.6-1.3c0.5-0.4,1-0.9,1.4-1.4c1.2-1.2,2-2.7,2.5-4.2
				c0.5-1.6,0.8-3.2,0.9-4.8c0.2-2.9,0-5.8-0.3-8.6c-0.4-2.8-1.1-5.5-2.1-8.2c-0.7-1.7-1.4-3.3-2.2-5c-0.8-1.6-1.7-3.2-2.9-4.6
				c-0.6-0.7-1.3-1.4-2-2.1c-0.7-0.7-1.4-1.3-2.1-1.9c-1.7-1.5-3.4-2.8-5.2-4.1c-1.8-1.2-3.6-2.4-5.6-3.4c-1.4-0.7-2.8-1.4-4.1-2.2
				c-1.4-0.8-2.6-1.8-3.7-2.9c-1.2-1.2-2.3-2.4-3.4-3.8s-1.9-2.8-2.5-4.4c-1-2.4-1.4-5.1-1.3-8c0.1-1.8,0.4-3.5,0.9-5.1
				c0.5-1.6,1.2-3.2,2.1-4.7c3-4.8,7.3-8.2,13-10.2c2.8-0.9,5.6-1.2,8.5-0.9c0.8,0.1,1.7,0.2,2.5,0.3c0.8,0.1,1.7,0.3,2.5,0.5
				c2,0.5,3.8,1.3,5.5,2.3c1.7,1,3.3,2.3,4.7,3.7c0.6,0.6,1.1,1.2,1.5,1.8c0.4,0.6,0.9,1.2,1.4,1.8c0.4,0.4,0.7,0.8,1.1,1.3
				c0.4,0.4,0.7,0.9,1.1,1.3c0.6,0.9,1.1,1.7,1.7,2.6c0.6,0.8,1.1,1.7,1.6,2.6c0.4,0.6,0.5,1.1,0.4,1.6c-0.1,0.4-0.4,0.8-0.9,1.2
				c-1.1,0.9-2.2,1-3.2,0.3c-0.7-0.5-1.4-0.9-2-1.4c-0.6-0.5-1.3-1-2-1.6c-1-0.9-2.2-1.6-3.4-2.2c-1.2-0.6-2.5-1-3.9-1.2
				c-2.1-0.4-4.2-0.4-6.2,0c-2,0.4-3.8,1.3-5.5,2.6c-2.5,1.9-3.4,4.1-2.6,6.6c0.3,0.9,0.7,1.6,1.3,2.1c0.6,0.5,1.3,1,2,1.4
				c1.2,0.7,2.4,1.4,3.6,2c1.2,0.6,2.4,1.3,3.6,2c3.6,2.1,6.8,4.8,9.6,8c1,1.2,2,2.4,3,3.6s1.8,2.5,2.7,3.9c0.9,1.6,1.8,3.3,2.7,4.9
				c0.9,1.7,1.6,3.4,2.1,5.2c0.5,1.6,0.9,3.2,1.4,4.8c0.5,1.6,0.8,3.2,1.1,4.9c0.6,5.2,0.4,10.2-0.5,15.1c-0.5,2.7-1.3,5.2-2.5,7.5
				c-1.1,2.3-2.5,4.6-4.2,6.8c-0.3,0.5-0.7,0.9-1.3,1.4c-2.1,1.7-4.3,3.1-6.5,4.3c-2.3,1.2-4.7,2.1-7.4,2.7c-3.6,0.8-7,0.8-10.1,0
				c-3.1-0.8-6.1-2.4-8.9-4.6c-0.7-0.6-1.5-1.3-2.2-2c-0.8-0.7-1.4-1.4-2.1-2.1c-1-1.2-1.9-2.6-2.5-4c-0.6-1.4-1.2-2.9-1.7-4.4
				c-1-2.6-1.5-5.2-1.6-7.9c0-1.1,0.1-2.3,0.2-3.4c0.1-1.1,0.2-2.3,0.4-3.4C6.2,256.1,6.3,255.8,6.5,255.5"/>
			<path class="st3" d="M110.3,226.1c-0.6,0.1-1,0.2-1.4,0.2c-0.3,0-0.6-0.1-0.8-0.2c-0.2-0.1-0.4-0.3-0.5-0.5
				c-0.2-0.3-0.4-0.7-0.6-1.2c-0.1-0.2-0.2-0.4-0.3-0.5c-1.3-1.1-2.5-2.2-3.9-3.3c-1.3-1-2.8-1.8-4.5-2.2c-0.6-0.2-1.1-0.2-1.7-0.2
				s-1.1,0-1.7-0.1c-0.3,0-0.7,0-1.3,0.1c-0.5,0.1-1.1,0.2-1.7,0.4c-0.6,0.2-1.1,0.3-1.6,0.5c-0.5,0.2-0.8,0.4-0.9,0.6
				c-2.2,3.2-4.3,6.4-6.1,9.8c-1.8,3.3-3,7-3.7,10.9c-0.7,3.5-1.2,7.1-1.4,10.6c-0.3,3.5-0.2,7.1,0.2,10.7c0.2,1.9,0.4,3.7,0.7,5.5
				c0.2,1.8,1,3.4,2.3,4.8c0.6,0.7,1.1,1.3,1.6,1.8c0.5,0.5,1,1.1,1.7,1.6c0.3,0.2,0.7,0.4,1.4,0.4c0.7,0.1,1.4,0.1,2.2,0.1
				c0.8,0,1.5-0.1,2.2-0.2c0.7-0.1,1.2-0.2,1.4-0.4c1.1-0.6,2-1.4,2.8-2.3c0.8-0.9,1.5-1.9,2.2-2.9c0.5-0.7,0.9-1.5,1.2-2.3
				c0.4-0.8,0.8-1.7,1.2-2.5c0.4-0.9,0.8-1.8,1.3-2.6c0.4-0.9,1-1.6,1.8-2.3c0.6-0.5,1.2-0.6,1.8-0.5c0.6,0.1,1,0.6,1.2,1.3
				c0.2,0.6,0.3,1.3,0.4,1.9c0,0.7-0.1,1.3-0.3,2c-0.6,1.8-1.2,3.6-1.8,5.4c-0.6,1.8-1.4,3.5-2.3,5.2c-1,1.8-2.1,3.5-3.4,5.2
				c-1.3,1.6-2.8,3-4.5,4.2c-4,3-8.1,4.3-12.1,4.1c-4.1-0.2-8-2.1-11.7-5.6c-2.7-2.5-4.6-5.3-5.9-8.4c-1.3-3.1-2.2-6.5-2.6-10.1
				c-0.5-4-0.5-7.9-0.1-11.7c0.4-3.9,1.1-7.7,2-11.6c0.7-2.8,1.4-5.6,2.3-8.3c0.9-2.7,1.9-5.3,3.2-7.9c2.2-4.4,5-8,8.4-10.9
				c3.4-2.9,7.5-4.8,12.5-5.7c1-0.2,2.1-0.3,3.3-0.2c1.1,0.1,2.3,0.2,3.4,0.4c1.9,0.3,3.7,0.7,5.5,1.3c1.8,0.6,3.4,1.6,4.9,2.8
				c0.8,0.7,1.6,1.5,2.4,2.2c0.8,0.8,1.4,1.6,1.9,2.5c0.6,1.4,0.9,2.7,0.9,4.2C111.9,223.4,111.4,224.8,110.3,226.1"/>
			<path class="st3" d="M134,263.6c0.1-1,0.2-2.1,0.4-3.1c0.2-1,0.3-2.1,0.4-3.1c0.3-2,0.5-4.1,0.7-6.1c0.2-2,0.4-4.1,0.7-6.1
				c0.4-2.1,0.7-4.3,1.1-6.4c0.4-2.1,0.8-4.2,1.4-6.4c0.6-2.3,1.3-4.5,2.1-6.7c0.8-2.2,1.8-4.3,3-6.3c0.8-1.3,1.6-2.6,2.4-3.8
				c0.8-1.2,1.8-2.3,3-3.3c0.4-0.4,0.8-0.7,1.3-1.1c0.4-0.3,0.9-0.6,1.4-0.9c0.6-0.4,1.2-0.6,1.8-0.6c0.6,0,1.3,0,2,0.2
				c1.1,0.3,2.2,0.7,3.2,1.2c1,0.5,2,1.2,2.9,1.8c0.4,0.2,0.7,0.4,0.7,0.5c0.6,1,1.1,2,1.7,2.9c0.5,0.9,1,1.9,1.3,3
				c0.4,1.4,0.7,2.7,1,4.1c0.2,1.4,0.5,2.7,0.7,4.1c0.2,0.8,0.2,1.6,0.3,2.4c0,0.8,0.1,1.6,0.4,2.4c0.4,1.7,0.5,3.4,0.4,5.2
				c-0.2,1.7-0.1,3.5,0.1,5.2c0.1,0.3,0.1,0.6,0,1c-0.1,0.3-0.1,0.7-0.1,1.1c0.1,1.2,0.1,2.4,0.1,3.7c0,1.3,0.1,2.5,0.2,3.7
				c0.2,2,0.3,4,0.5,6c0.2,2,0.4,4,0.6,6c0.2,2,0.3,4,0.4,6c0.1,2,0.3,4,0.6,6c0.1,0.7,0.3,1.4,0.5,2.1c0.3,0.7,0.5,1.4,0.7,2.1
				c0.2,0.6,0.2,1.2,0.2,1.9c0,0.6-0.1,1.2-0.2,1.8c-0.1,0.6-0.3,1.2-0.6,1.8c-0.5,1.3-1.4,1.8-2.7,1.5c-4-1-6.8-3.3-8.5-6.8
				c-1.6-3.1-2.8-6.3-3.6-9.6c-0.9-3.3-1.4-6.7-1.8-10.1c-0.4-4.2-0.7-8.4-0.8-12.7c-0.1-4.2-0.1-8.4,0.2-12.7
				c0.2-2.4,0.2-4.9,0-7.3c-0.1-2.4-0.2-4.9-0.3-7.3c0-0.2,0-0.4-0.1-0.6c-0.1-0.2-0.2-0.5-0.3-0.9c-0.5,0.7-0.9,1.4-1.3,2
				c-0.4,0.6-0.7,1.2-1,1.8c-1.1,2.3-2.1,4.6-2.9,6.9c-0.9,2.3-1.6,4.7-2.1,7.2c-0.2,0.9-0.4,1.8-0.6,2.7c-0.3,0.9-0.5,1.8-0.7,2.7
				c-0.3,1-0.5,2.1-0.7,3.2c-0.2,1.1-0.4,2.2-0.6,3.2c-0.6,2.7-1,5.3-1.4,8c-0.4,2.4-0.8,4.9-1.1,7.3c-0.3,2.4-0.6,4.9-1,7.3
				c-0.2,1.4-0.5,2.8-0.7,4.1c-0.3,1.4-0.7,2.7-1.2,4.1c-0.5,1.3-1.1,2.3-2,3.2c-0.9,0.9-1.8,1.8-2.7,2.6c-0.6,0.5-1.2,1-1.9,1.4
				c-0.7,0.4-1.4,0.8-2.1,1.1c-1,0.5-1.8,0.6-2.5,0.4c-0.7-0.2-1.3-0.8-1.9-1.7c-0.7-1.1-1.4-2.2-1.9-3.4c-0.5-1.2-0.9-2.4-1.1-3.8
				c-0.3-1.7-0.5-3.3-0.6-4.9c-0.2-1.6-0.3-3.3-0.5-4.9c-0.1-1.1-0.2-2.3-0.4-3.4L120,263c-0.5-3.9-0.9-7.7-1.2-11.5
				c-0.3-3.8-0.5-7.7-0.6-11.6c-0.1-6.2-0.2-12.4-0.2-18.5c-0.1-6.1-0.1-12.3-0.2-18.5c-0.1-4.4-0.1-8.8,0-13.2
				c0.1-4.4,0.1-8.8,0.1-13.2c0-1,0.3-1.9,0.9-2.7c0.6-0.8,1.4-1.3,2.5-1.4c1.6-0.2,2.9,0.2,4.1,1.1c0.9,0.6,1.6,1.4,2.1,2.3
				c0.4,0.9,0.8,1.8,1.1,2.9c0.5,1.9,0.7,3.9,0.8,5.8s0.2,3.9,0.3,5.8c0.1,1.8,0.1,3.5,0.2,5.2c0.1,1.7,0.2,3.4,0.3,5.2
				c0.1,1,0.1,2,0.1,2.9c0,1,0,1.9,0.1,2.9c0.1,0.9,0.1,1.9,0.1,2.8c0,0.9,0.1,1.9,0.2,2.8c0.1,1.6,0.2,3.2,0.4,4.8
				c0.1,1.6,0.3,3.2,0.4,4.8c0.3,2.2,0.4,4.3,0.3,6.5c-0.1,2.1-0.2,4.3-0.3,6.5c-0.1,0.9,0,1.8,0.1,2.7c0.1,0.9,0.2,1.8,0.3,2.7
				c0.1,1,0.1,2,0.2,3c0.1,1,0.1,2,0.2,3c0.1,1.4,0.2,2.8,0.2,4.2c0.1,1.4,0.1,2.8,0.2,4.3c0.1,1.3,0.2,2.6,0.3,3.8
				c0.1,1.3,0.2,2.5,0.3,3.8c0,0.3,0.1,0.5,0.2,0.7c0,0.2,0.1,0.5,0.2,0.7C133.8,263.7,133.9,263.7,134,263.6"/>
			<path class="st3" d="M232.3,248.8c-0.1,2.5-0.1,4.7-0.2,6.7c-0.1,2-0.4,3.8-0.9,5.7c-0.4,1.6-0.9,3.1-1.3,4.6
				c-0.5,1.5-1.1,3.1-1.8,4.6c-0.7,1.4-1.5,2.8-2.3,4.1c-0.8,1.4-1.6,2.7-2.3,4.1c-0.8,1.4-1.8,2.6-3,3.6c-1.1,1-2.3,2-3.6,2.9
				c-0.1,0.1-0.2,0.2-0.3,0.2c-0.1,0-0.2,0.1-0.3,0.2c-1.7,1.5-3.5,2.4-5.5,2.8c-2,0.4-4,0.6-6.1,0.6c-0.9,0-1.8-0.1-2.7-0.3
				c-0.9-0.2-1.8-0.4-2.7-0.5c-4.4-0.9-8.1-2.7-11-5.3c-2.9-2.7-5.2-6-6.9-9.9c-1.6-3.5-2.6-7.1-3-10.7c-0.5-3.6-0.5-7.3-0.2-11.1
				c0.3-2.8,0.7-5.6,1.3-8.3c0.6-2.7,1.3-5.4,2.3-8c1.4-4,3.1-7.6,5.2-11.1c2.1-3.4,4.8-6.5,8.1-9.3c4.3-3.6,9.2-5.6,14.9-5.9
				c2.7-0.2,5,0.3,7.1,1.4c2.1,1.1,4,2.6,5.7,4.6c1.9,2.3,3.3,4.9,4.3,7.5c1,2.7,1.9,5.4,2.5,8.2c0.4,1.7,0.7,3.4,1,5.2
				c0.2,1.7,0.5,3.5,0.7,5.2c0.3,1.5,0.5,3,0.7,4.5C232.3,246.6,232.4,247.8,232.3,248.8 M195.2,256.5c0,1.9,0.4,4.1,1,6.5
				c0.6,2.5,1.7,4.9,3.3,7.3c1.7,2.5,3.7,4.3,6.1,5.5c2.4,1.2,5.1,1.7,8.2,1.4c0.7-0.1,1.4-0.3,2.1-0.5c0.7-0.3,1.4-0.5,2-0.9
				c1.4-0.7,2.4-1.6,3.2-2.8c0.8-1.2,1.5-2.4,2.2-3.8c1-2.1,1.8-4.3,2.2-6.6c0.4-2.2,0.7-4.5,0.9-6.8c0.2-2,0.3-3.9,0.3-5.9
				c0-1.9-0.2-3.9-0.6-5.8c-0.3-1.4-0.5-2.7-0.7-4.1c-0.2-1.4-0.5-2.7-0.8-4.1c-0.4-1.9-0.9-3.8-1.5-5.7s-1.4-3.6-2.5-5.3
				c-0.9-1.6-2-3-3.2-4.2c-1.2-1.2-2.7-2.2-4.5-3c-1.5-0.6-2.8-0.7-3.8-0.4c-1,0.3-2,1.1-3,2.4c-2.8,3.6-5,7.6-6.6,12
				c-1.4,3.7-2.4,7.5-3.1,11.4C195.7,247.3,195.3,251.7,195.2,256.5"/>
			<path class="st3" d="M289.5,248.8c-0.1,2.5-0.1,4.7-0.2,6.7c-0.1,2-0.4,3.8-0.9,5.7c-0.4,1.6-0.9,3.1-1.3,4.6
				c-0.5,1.5-1.1,3.1-1.8,4.6c-0.7,1.4-1.5,2.8-2.3,4.1c-0.8,1.4-1.6,2.7-2.3,4.1c-0.8,1.4-1.8,2.6-3,3.6c-1.1,1-2.3,2-3.6,2.9
				c-0.1,0.1-0.2,0.2-0.3,0.2c-0.1,0-0.2,0.1-0.3,0.2c-1.7,1.5-3.5,2.4-5.5,2.8c-2,0.4-4,0.6-6.1,0.6c-0.9,0-1.8-0.1-2.7-0.3
				c-0.9-0.2-1.8-0.4-2.7-0.5c-4.4-0.9-8.1-2.7-11-5.3c-2.9-2.7-5.2-6-6.9-9.9c-1.6-3.5-2.6-7.1-3-10.7c-0.5-3.6-0.5-7.3-0.2-11.1
				c0.3-2.8,0.7-5.6,1.3-8.3c0.6-2.7,1.3-5.4,2.3-8c1.4-4,3.1-7.6,5.2-11.1c2.1-3.4,4.8-6.5,8-9.3c4.3-3.6,9.2-5.6,14.9-5.9
				c2.7-0.2,5,0.3,7.1,1.4c2.1,1.1,4,2.6,5.7,4.6c1.9,2.3,3.3,4.9,4.3,7.5c1,2.7,1.9,5.4,2.5,8.2c0.4,1.7,0.7,3.4,1,5.2
				c0.2,1.7,0.5,3.5,0.7,5.2c0.3,1.5,0.5,3,0.7,4.5C289.6,246.6,289.6,247.8,289.5,248.8 M252.4,256.5c0.1,1.9,0.4,4.1,1,6.5
				c0.6,2.5,1.7,4.9,3.3,7.3c1.7,2.5,3.7,4.3,6.1,5.5c2.4,1.2,5.1,1.7,8.2,1.4c0.7-0.1,1.4-0.3,2.1-0.5c0.7-0.3,1.4-0.5,2-0.9
				c1.4-0.7,2.4-1.6,3.2-2.8c0.8-1.2,1.5-2.4,2.1-3.8c1-2.1,1.8-4.3,2.2-6.6c0.4-2.2,0.7-4.5,0.9-6.8c0.2-2,0.3-3.9,0.3-5.9
				c0-1.9-0.2-3.9-0.6-5.8c-0.3-1.4-0.5-2.7-0.7-4.1c-0.2-1.4-0.5-2.7-0.8-4.1c-0.4-1.9-0.9-3.8-1.5-5.7c-0.6-1.9-1.4-3.6-2.5-5.3
				c-0.9-1.6-2-3-3.2-4.2c-1.2-1.2-2.7-2.2-4.5-3c-1.5-0.6-2.8-0.7-3.7-0.4c-1,0.3-2,1.1-3,2.4c-2.8,3.6-5,7.6-6.6,12
				c-1.4,3.7-2.4,7.5-3.1,11.4C252.9,247.3,252.5,251.7,252.4,256.5"/>
			<path class="st3" d="M308.8,284.2c-1,1.6-2.2,2.7-3.5,3.3c-1.3,0.6-2.5,1-3.6,1.1c-1.3,0.2-2.6,0.1-3.8-0.3
				c-0.7-0.9-1.3-1.9-1.8-3c-0.5-1-0.8-2.2-1.1-3.4c-0.6-3-1.1-6-1.3-9c-0.2-3-0.4-6-0.5-9.1c-0.1-2.8-0.2-5.6-0.4-8.3
				c-0.1-2.7-0.2-5.5-0.2-8.3c0-3.9,0-7.7,0.1-11.5c0.1-3.8,0.1-7.7,0.2-11.6c0.1-3.6,0.1-7.2,0-10.7c0-3.6,0-7.1,0.1-10.7
				c0-3.1,0.1-6.1,0.3-9.1c0.1-3,0.2-6.1,0.4-9.2c0-1.5,0.2-3,0.3-4.5c0.2-1.5,0.5-2.9,1.1-4.3c0.4-1,0.9-2,1.5-3
				c0.3-0.4,0.6-0.7,1-0.9c0.4-0.2,0.8-0.2,1.3-0.2c1.2-0.1,2.2,0.2,3,0.9c0.8,0.6,1.5,1.5,2.1,2.5c1.2,2.3,2,4.8,2.4,7.2
				c0.4,2.5,0.6,5,0.7,7.6c0.1,2.4,0.2,4.9,0.2,7.3c0.1,2.4,0.1,4.8,0.1,7.3c0.1,3.6,0.1,7.2,0.1,10.7c0,3.6-0.1,7.2-0.2,10.7
				c0,2.4-0.1,4.8-0.2,7.1c-0.1,2.4-0.2,4.8-0.3,7.1c-0.1,2.3-0.1,4.5-0.1,6.8c0,2.2,0,4.4,0,6.7c0,1.6,0,3.2,0.1,4.8
				c0.1,1.6,0.1,3.2,0.2,4.8c0,1.2,0,2.4,0.1,3.7c0.1,1.2,0.1,2.5,0.1,3.8c0.1,1.2,0.1,2.4,0,3.6c0,1.2,0,2.4,0,3.6
				c0.2-0.3,0.4-0.5,0.5-0.7c0.2-0.2,0.3-0.5,0.5-0.7c0.5-0.5,0.9-0.9,1.4-1.4c0.4-0.5,0.9-0.9,1.4-1.3c0.7-0.5,1.4-0.5,2.1,0.1
				c0.4,0.3,0.5,0.5,0.5,0.9c-0.1,0.3-0.1,0.7-0.2,1c-0.6,1.6-1.3,3.1-2.1,4.6C310.5,281.3,309.7,282.7,308.8,284.2"/>
			<path class="st4" d="M402.3,248.6c-0.1,2.5-0.1,4.7-0.2,6.7c-0.1,2-0.4,3.8-0.9,5.7c-0.4,1.6-0.9,3.1-1.3,4.6
				c-0.5,1.5-1.1,3.1-1.8,4.6c-0.7,1.4-1.5,2.8-2.3,4.1c-0.8,1.4-1.6,2.7-2.3,4.1c-0.8,1.4-1.8,2.6-3,3.6c-1.1,1-2.3,2-3.6,2.9
				c-0.1,0.1-0.2,0.2-0.3,0.2c-0.1,0-0.2,0.1-0.3,0.2c-1.7,1.5-3.5,2.4-5.5,2.8c-2,0.4-4,0.6-6.1,0.6c-0.9,0-1.8-0.1-2.7-0.3
				c-0.9-0.2-1.8-0.4-2.7-0.5c-4.4-0.9-8.1-2.7-11-5.3c-2.9-2.7-5.2-6-6.9-9.9c-1.6-3.5-2.6-7.1-3-10.7c-0.5-3.6-0.5-7.3-0.2-11.1
				c0.3-2.8,0.7-5.6,1.3-8.3c0.6-2.7,1.3-5.4,2.3-8c1.4-4,3.1-7.6,5.2-11.1c2.1-3.4,4.8-6.5,8-9.3c4.3-3.6,9.2-5.6,14.9-5.9
				c2.7-0.2,5,0.3,7.1,1.4c2.1,1.1,4,2.6,5.7,4.6c1.9,2.3,3.3,4.9,4.3,7.5c1,2.7,1.9,5.4,2.5,8.2c0.4,1.7,0.7,3.4,1,5.2
				c0.2,1.7,0.5,3.5,0.7,5.2c0.3,1.5,0.5,3,0.7,4.5C402.3,246.4,402.4,247.6,402.3,248.6 M365.2,256.3c0.1,1.9,0.4,4,1,6.5
				c0.6,2.5,1.7,4.9,3.3,7.3c1.7,2.5,3.7,4.4,6.1,5.5c2.4,1.2,5.1,1.7,8.2,1.4c0.7-0.1,1.4-0.3,2.1-0.5c0.7-0.3,1.4-0.5,2-0.9
				c1.4-0.7,2.4-1.6,3.2-2.8c0.8-1.2,1.5-2.4,2.1-3.8c1-2.1,1.8-4.3,2.2-6.6c0.4-2.2,0.7-4.5,0.9-6.8c0.2-2,0.3-3.9,0.3-5.9
				c0-1.9-0.2-3.9-0.6-5.8c-0.3-1.4-0.5-2.7-0.7-4.1c-0.2-1.4-0.5-2.7-0.8-4.1c-0.4-1.9-0.9-3.8-1.5-5.7c-0.6-1.9-1.4-3.6-2.5-5.3
				c-0.9-1.6-2-3-3.2-4.2c-1.2-1.3-2.7-2.2-4.5-3c-1.5-0.6-2.8-0.7-3.7-0.4c-1,0.3-2,1.1-3,2.4c-2.8,3.6-5,7.6-6.6,12
				c-1.4,3.7-2.4,7.5-3.1,11.4C365.7,247.1,365.3,251.5,365.2,256.3"/>
			<path class="st4" d="M444.6,277.6c0.1,2.2,0,3.9-0.2,4.8c-0.3,1-0.6,1.6-1,2c-0.5,0.4-1,0.4-1.6,0.2c-0.4-0.2-0.8-0.4-1.2-0.5
				c-0.4-0.1-0.7-0.3-1.1-0.6c-0.8-0.5-1.6-0.9-2.3-1.4c-0.8-0.4-1.4-1.1-1.9-1.9c-1.1-1.8-2.1-3.7-3-5.7c-0.9-2-1.6-3.9-2.2-6
				c-1-3.4-2-6.9-2.9-10.3c-0.9-3.4-1.8-6.9-2.7-10.3c-0.8-3.1-1.4-6.3-1.7-9.4c-0.4-3.1-0.6-6.3-0.6-9.5c-0.1-1.4-0.1-2.7-0.3-4.1
				c-0.1-1.4-0.2-2.7-0.2-4.1c-0.1-3.2-0.1-6.5,0-9.8v-2c-0.2,0-0.3-0.1-0.4-0.1c-0.1,0-0.2,0-0.3,0c-3.1-0.1-6.2-0.2-9.3-0.2
				c-3.1,0-6.2-0.1-9.3-0.2c-0.7,0-1.3,0-2-0.1c-0.6-0.1-1.3-0.1-2-0.2c-0.5-0.1-0.8-0.4-0.9-0.9c-0.1-0.6,0.1-1.2,0.5-1.9
				c0.4-0.6,1-1,1.7-1c3.4-0.3,6.7-0.7,10.1-1.1c3.3-0.4,6.7-0.5,10.1-0.4c0.4,0,0.7,0,1,0c0.3,0,0.7,0,1,0c0.2-1.2,0.3-2.3,0.5-3.4
				c0.2-1.1,0.3-2.1,0.4-3.2c0.4-3.1,0.9-6.2,1.6-9.1c0.7-3,1.6-5.9,2.8-8.8c1.2-2.9,3.1-5.5,5.7-7.7c1.5-1.2,3.3-2.1,5.4-2.6
				c2.2-0.6,4.3-0.9,6.3-1.1c1.7-0.1,3.4,0.1,4.9,0.7c1.6,0.6,3.1,1.4,4.5,2.3c0.9,0.6,1.4,1.3,1.7,2.1c0.2,0.9,0.5,1.7,0.7,2.6
				c0.1,0.2,0.1,0.4,0.1,0.6c0,0.2,0,0.4,0.1,0.6c0.3,1,0.5,2,0.4,3c0,1-0.1,1.9-0.3,2.9c-0.2,1-0.3,1.9-0.5,2.9
				c-0.2,1-0.3,1.9-0.4,2.9c-1.7,0.4-2.9-0.3-3.4-2c-0.2-0.6-0.4-1.1-0.5-1.7c-0.1-0.6-0.2-1.1-0.3-1.7c-0.1-0.8-0.3-1.5-0.8-2.1
				c-0.5-0.6-1.1-1.2-1.8-1.6c-0.7-0.4-1.5-0.7-2.4-0.9c-0.9-0.1-1.7-0.1-2.6,0.2c-0.8,0.3-1.4,0.7-2,1.3c-0.5,0.6-0.9,1.3-1.2,2
				c-0.4,1-0.7,2.1-0.9,3.1c-0.3,1-0.5,2-0.6,3.1c-0.6,2.9-1,5.8-1.2,8.7c-0.1,1.1-0.2,2.2-0.2,3.4c0,1.1-0.1,2.3-0.1,3.5
				c1.1,0.1,2.3,0.2,3.3,0.2c1.1,0.1,2.1,0.1,3.2,0.2c2.4,0.2,4.9,0.4,7.3,0.6c2.4,0.2,4.8,0.4,7.2,0.7c1.2,0.1,2,0.4,2.5,0.8
				c0.4,0.4,0.9,1.3,1.3,2.5c-0.4,0.3-0.8,0.6-1.2,1c-0.4,0.3-0.8,0.7-1.2,1c-0.3,0.2-0.6,0.3-0.8,0.3h-4.8c-1.6,0-3.1,0-4.8-0.1
				c-1.7-0.1-3.4-0.1-5.2-0.2c-1.7-0.1-3.4-0.1-5.2-0.2c-0.3-0.1-0.5-0.1-0.7-0.1h-0.7c0,0.9,0,1.8,0,2.7c0,0.8,0,1.6,0,2.4
				c0.2,3.5,0.4,7.1,0.6,10.5c0.2,3.5,0.4,7,0.7,10.5c0.2,2.6,0.5,5.1,0.9,7.5c0.4,2.5,0.8,5,1.2,7.5c0.4,2.7,0.8,5.4,1.2,8.1
				c0.4,2.7,0.7,5.4,1,8.2c0.2,1.7,0.3,3.4,0.5,5C444.4,274,444.5,275.7,444.6,277.6"/>
			<path class="st2" d="M493.5,255.3c0.3-0.6,0.7-1,1.2-1.2c0.5-0.2,1-0.4,1.4-0.5c0.6-0.1,1.1-0.1,1.6,0c0.4,0.2,0.6,0.5,0.7,0.7
				c0.1,0.3,0.2,0.6,0.2,1.1v3.9c0,1.3,0,2.6,0.1,4c0.1,2.2,0.5,4.3,1.3,6.3c0.8,1.9,1.8,3.8,3.2,5.5c0.9,1.1,2.1,2,3.7,2.4
				c2.9,1,5.7,1.2,8.3,0.7c2.6-0.5,5.2-1.6,7.7-3.2c0.6-0.4,1.1-0.8,1.6-1.3c0.5-0.4,1-0.9,1.4-1.4c1.2-1.2,2-2.7,2.5-4.2
				c0.5-1.6,0.8-3.2,0.9-4.8c0.2-2.9,0-5.8-0.4-8.6c-0.4-2.8-1.1-5.5-2.1-8.2c-0.7-1.7-1.4-3.3-2.1-5c-0.8-1.6-1.7-3.2-2.9-4.6
				c-0.6-0.7-1.3-1.4-2-2.1c-0.7-0.7-1.4-1.3-2.1-1.9c-1.7-1.5-3.4-2.8-5.2-4.1c-1.8-1.3-3.6-2.4-5.6-3.4c-1.4-0.7-2.8-1.4-4.1-2.2
				c-1.4-0.8-2.6-1.8-3.8-2.9c-1.2-1.2-2.3-2.4-3.4-3.8s-1.9-2.8-2.5-4.4c-1-2.4-1.4-5.1-1.3-8c0.1-1.8,0.4-3.5,0.9-5.1
				c0.5-1.6,1.2-3.2,2.1-4.7c3-4.8,7.3-8.2,13-10.2c2.8-0.9,5.6-1.2,8.5-0.9c0.8,0.1,1.7,0.2,2.5,0.3c0.8,0.1,1.7,0.3,2.5,0.5
				c2,0.5,3.8,1.3,5.5,2.3c1.7,1,3.3,2.3,4.7,3.7c0.6,0.6,1.1,1.2,1.5,1.8c0.4,0.6,0.9,1.2,1.4,1.8c0.4,0.4,0.7,0.8,1.1,1.3
				c0.4,0.4,0.7,0.9,1.1,1.3c0.6,0.9,1.1,1.7,1.7,2.6c0.6,0.8,1.1,1.7,1.6,2.6c0.4,0.6,0.5,1.1,0.4,1.6c-0.1,0.4-0.4,0.8-0.9,1.2
				c-1.1,0.9-2.2,1-3.2,0.3c-0.7-0.5-1.4-0.9-2-1.4c-0.6-0.5-1.3-1-2-1.6c-1-0.9-2.2-1.6-3.4-2.2c-1.2-0.6-2.5-1-3.9-1.2
				c-2.1-0.4-4.2-0.4-6.2,0c-2,0.4-3.8,1.3-5.5,2.6c-2.5,1.9-3.4,4.1-2.6,6.6c0.3,0.9,0.7,1.6,1.3,2.1c0.6,0.5,1.3,1,2,1.4
				c1.2,0.7,2.4,1.4,3.6,2c1.2,0.6,2.4,1.3,3.6,2c3.6,2.1,6.8,4.8,9.6,8c1,1.2,2,2.4,3,3.6c0.9,1.2,1.8,2.5,2.7,3.9
				c0.9,1.6,1.9,3.3,2.7,4.9c0.9,1.7,1.6,3.4,2.1,5.2c0.5,1.6,0.9,3.2,1.4,4.8c0.5,1.6,0.8,3.2,1.1,4.9c0.6,5.2,0.4,10.2-0.5,15.1
				c-0.5,2.7-1.3,5.2-2.5,7.5c-1.1,2.3-2.5,4.6-4.2,6.8c-0.3,0.5-0.7,0.9-1.3,1.4c-2.1,1.7-4.3,3.1-6.5,4.3
				c-2.3,1.2-4.7,2.1-7.4,2.7c-3.6,0.8-7,0.8-10.1,0c-3.1-0.8-6.1-2.4-8.9-4.6c-0.7-0.6-1.5-1.3-2.2-2c-0.8-0.7-1.4-1.4-2.1-2.1
				c-1-1.3-1.9-2.6-2.5-4c-0.6-1.4-1.2-2.9-1.7-4.4c-1-2.6-1.5-5.2-1.6-7.9c0-1.1,0.1-2.3,0.2-3.4c0.1-1.1,0.2-2.3,0.4-3.4
				C493.1,255.9,493.2,255.6,493.5,255.3"/>
			<path class="st2" d="M563.8,231.4c1.2-1.7,2.4-3.3,3.5-4.8c1.1-1.5,2.3-3,3.5-4.5c1.5-1.7,3-3.3,4.6-4.8c1.6-1.5,3.3-2.9,5.3-4.1
				c3.7-2.3,7.7-3.2,12-2.7c1.4,0.1,2.6,0.5,3.7,1.2c1.1,0.7,2.1,1.6,3,2.7c0.3,0.3,0.4,0.7,0.5,1.2c0.1,0.5,0.1,0.9,0.2,1.3
				c0.1,1.5,0,3-0.2,4.5c-0.2,1.5-0.5,2.9-0.9,4.4c-0.4,1.7-1,3.2-1.6,4.7c-0.7,1.5-1.4,2.9-2.2,4.5c-0.9,1.7-1.9,3.2-3,4.6
				c-1.1,1.4-2.4,2.8-3.7,4.1c-1.8,1.8-3.8,3.5-5.9,5.1c-2.1,1.6-4.5,2.7-7.1,3.5c-1.4,0.4-2.7,0.8-4.1,1.2
				c-1.4,0.4-2.8,0.8-4.3,1.2c0.1,0.9,0.1,1.8,0.1,2.7c0,0.9,0.1,1.9,0.2,3c0.2,2.2,0.4,4.5,0.7,6.7c0.3,2.2,0.5,4.5,0.5,6.8
				c0,1.6,0.2,3.1,0.5,4.7c0.3,1.6,0.6,3.2,0.9,4.8c0.1,0.8,0.2,1.4,0.3,1.9c0.1,0.5,0.2,0.9,0.3,1.3c0.1,0.4,0.2,0.8,0.4,1.3
				c0.1,0.5,0.2,1.1,0.4,2c0.3,1.9,0.5,3.8,0.8,5.7c0.3,1.9,0.6,3.8,0.9,5.7c0.4,2.8,0.8,5.6,1,8.4c0.3,2.8,0.3,5.5,0.2,8.4
				c-0.1,0.9-0.1,1.9-0.1,2.8c0,0.9-0.1,1.8-0.2,2.8c-0.1,0.8-0.2,1.6-0.3,2.4c-0.1,0.8-0.2,1.6-0.4,2.3c-0.1,0.4-0.3,0.8-0.7,1.1
				c-0.4,0.3-0.8,0.5-1.2,0.6c-0.5,0.1-1,0.1-1.5,0c-0.5-0.1-1-0.3-1.3-0.6c-0.9-0.7-1.7-1.5-2.4-2.4c-0.7-0.9-1.3-1.8-1.8-2.9
				c-0.5-1.1-0.9-2.2-1.4-3.3s-0.9-2.3-1.2-3.4c-0.7-2.6-1.4-5.2-2-7.8c-0.6-2.6-1.1-5.2-1.7-7.8c-0.4-1.5-0.7-3-1-4.4
				c-0.3-1.4-0.6-2.9-0.8-4.3c-0.2-1.2-0.3-2.2-0.5-3c-0.2-0.8-0.3-1.6-0.4-2.4c-0.1-0.8-0.2-1.5-0.4-2.4c-0.1-0.8-0.2-1.8-0.4-3
				c-0.3-2-0.5-4-0.7-6.1c-0.2-2-0.4-4-0.7-6.1c-0.3-2.2-0.5-4.5-0.7-6.6c-0.2-2.2-0.5-4.4-0.7-6.6c-0.2-1.4-0.4-2.7-0.6-4.1
				c-0.2-1.4-0.4-2.7-0.6-4.1c-0.3-2-0.5-4.1-0.8-6.1c-0.3-2-0.6-4.1-0.8-6.1c-0.3-2.6-0.5-5.1-0.7-7.6c-0.2-2.5-0.2-5.1-0.1-7.7
				c0-0.4,0-0.8-0.1-1.2c-0.1-0.4-0.1-0.7-0.1-1.1c-0.1-1.5,0.1-2.8,0.5-4.1c0.4-1.3,0.9-2.6,1.4-3.9c0.6-1.2,1.4-1.9,2.6-2.1
				c1.1-0.2,2.4,0,3.8,0.7c1,0.4,1.8,1,2.5,1.8c0.7,0.8,1.2,1.7,1.5,2.7c0.8,2.5,1.5,5,2.1,7.4c0.6,2.5,1,5,1.2,7.6
				c0.1,0.4,0.1,0.8,0.2,1.3C563.6,230.4,563.7,230.9,563.8,231.4 M568.5,242.2c0.2,0.2,0.4,0.4,0.5,0.5c1.1-0.6,2.3-1.2,3.5-1.8
				s2.3-1.2,3.4-1.9c4-2.7,7.5-5.9,10.5-9.5c1.5-1.8,2.6-3.7,3.2-5.7c0.6-2,1-4.2,1-6.5c-2.3,0.3-4.2,1-5.8,2.3
				c-0.9,0.7-1.7,1.5-2.5,2.3c-0.8,0.8-1.7,1.6-2.5,2.3c-2.5,2.2-4.6,4.6-6.3,7.3c-1.7,2.7-3.2,5.5-4.4,8.6
				c-0.1,0.4-0.2,0.7-0.3,1.1C568.7,241.5,568.6,241.8,568.5,242.2"/>
			<path class="st2" d="M658.1,248.6c-0.1,2.5-0.1,4.7-0.2,6.7c-0.1,2-0.4,3.8-0.9,5.7c-0.4,1.6-0.9,3.1-1.3,4.6
				c-0.5,1.5-1.1,3.1-1.8,4.6c-0.7,1.4-1.5,2.8-2.3,4.1c-0.8,1.4-1.6,2.7-2.3,4.1c-0.8,1.4-1.8,2.6-3,3.6c-1.1,1-2.3,2-3.6,2.9
				c-0.1,0.1-0.2,0.2-0.3,0.2c-0.1,0-0.2,0.1-0.3,0.2c-1.7,1.5-3.5,2.4-5.5,2.8c-2,0.4-4,0.6-6.1,0.6c-0.9,0-1.8-0.1-2.7-0.3
				c-0.9-0.2-1.8-0.4-2.7-0.5c-4.4-0.9-8.1-2.7-11-5.3c-2.9-2.7-5.2-6-6.9-9.9c-1.6-3.5-2.6-7.1-3-10.7c-0.5-3.6-0.5-7.3-0.2-11.1
				c0.3-2.8,0.7-5.6,1.3-8.3c0.6-2.7,1.3-5.4,2.3-8c1.4-4,3.1-7.6,5.2-11.1c2.1-3.4,4.8-6.5,8.1-9.3c4.3-3.6,9.2-5.6,14.9-5.9
				c2.7-0.2,5,0.3,7.1,1.4c2.1,1.1,4,2.6,5.7,4.6c1.9,2.3,3.3,4.9,4.3,7.5c1,2.7,1.9,5.4,2.5,8.2c0.4,1.7,0.7,3.4,1,5.2
				c0.2,1.7,0.5,3.5,0.7,5.2c0.3,1.5,0.5,3,0.7,4.5C658.1,246.4,658.2,247.6,658.1,248.6 M621,256.3c0,1.9,0.4,4,1,6.5
				c0.6,2.5,1.7,4.9,3.3,7.3c1.7,2.5,3.7,4.4,6.1,5.5c2.4,1.2,5.1,1.7,8.2,1.4c0.7-0.1,1.4-0.3,2.1-0.5c0.7-0.3,1.4-0.5,2-0.9
				c1.4-0.7,2.4-1.6,3.2-2.8c0.8-1.2,1.5-2.4,2.2-3.8c1-2.1,1.8-4.3,2.2-6.6c0.4-2.2,0.7-4.5,0.9-6.8c0.2-2,0.3-3.9,0.3-5.9
				c0-1.9-0.2-3.9-0.6-5.8c-0.3-1.4-0.5-2.7-0.7-4.1c-0.2-1.4-0.5-2.7-0.8-4.1c-0.4-1.9-0.9-3.8-1.5-5.7c-0.6-1.9-1.4-3.6-2.5-5.3
				c-0.9-1.6-2-3-3.2-4.2c-1.2-1.3-2.7-2.2-4.5-3c-1.5-0.6-2.8-0.7-3.8-0.4c-1,0.3-2,1.1-3,2.4c-2.8,3.6-5,7.6-6.6,12
				c-1.4,3.7-2.4,7.5-3.1,11.4C621.5,247.1,621.1,251.5,621,256.3"/>
			<path class="st2" d="M704.6,219.5c0.3,2.1,0.6,4.2,0.7,6.3c0.2,2.1,0.2,4.2,0.2,6.4c0,0.5,0,0.9-0.1,1.4
				c-0.1,0.5-0.1,0.9-0.2,1.3l-0.5,4.5c-0.6,0.3-1,0.4-1.4,0.3c-0.3-0.1-0.7-0.4-1.1-0.9c-1.5-1.8-2.3-3.8-2.5-5.9
				c-0.2-1.5-0.4-3-0.4-4.6c-0.1-1.6-0.2-3.1-0.4-4.6c-0.2-1.1-0.4-2.2-0.7-3.3c-0.3-1.1-0.6-2.2-0.8-3.3c-0.1-0.4-0.2-0.7-0.4-1.1
				c-0.2-0.3-0.4-0.7-0.6-1.1c-0.5,0.4-1,0.8-1.5,1.1c-0.5,0.3-1,0.7-1.4,1.1c-1.8,1.8-3.5,3.6-5.2,5.6c-1.6,2-3.1,4-4.5,6.2
				c-1.2,2-2.3,4.1-3.2,6.3c-0.9,2.2-1.7,4.5-2.2,6.8c-0.1,0.3-0.2,0.6-0.2,0.9v1c0.2,1.4,0.3,2.7,0.5,4c0.2,1.3,0.4,2.7,0.7,4
				c0.4,1.7,0.6,3.4,0.8,5.1c0.2,1.7,0.4,3.4,0.7,5.2c0.1,0.5,0.2,1,0.3,1.5c0.1,0.5,0.2,0.9,0.3,1.4c0.1,1.1,0.2,2.2,0.3,3.3
				c0.1,1.1,0.2,2.2,0.4,3.2c0.2,1,0.3,2.1,0.5,3.2c0.2,1.1,0.3,2.2,0.5,3.2c0.1,0.5,0.2,0.9,0.3,1.4c0.1,0.5,0.2,0.9,0.3,1.4
				c0.1,0.4,0.1,0.7,0.1,1.1c-0.1,0.4-0.1,0.7-0.2,1.1c-0.1,0.7-0.1,1.3-0.3,2c-0.1,0.7-0.4,1.2-0.8,1.8l-0.5,0.5
				c-0.4,0.4-1,0.5-1.6,0.5c-0.5,0.3-1.2,0.5-2.1,0.7c-0.9,0.2-1.8,0.3-2.7,0.3c-0.9,0-1.7-0.1-2.5-0.4c-0.8-0.3-1.3-0.8-1.5-1.5
				c-0.7-2.1-1.3-4.8-2-8.1c-0.7-3.3-1.3-6.9-1.9-10.8c-0.6-3.9-1.2-8-1.8-12.3c-0.6-4.3-1.1-8.5-1.6-12.7c-0.5-4.2-0.9-8.2-1.3-12
				c-0.4-3.8-0.7-7.2-1-10.1c-0.3-2.9-0.5-5.3-0.6-7c-0.1-1.8-0.2-2.7-0.2-2.8c0.1-0.2,0.3-0.3,0.7-0.5c0.4-0.2,0.9-0.4,1.4-0.5
				c0.5-0.2,1.1-0.3,1.7-0.4c0.6-0.1,1-0.2,1.3-0.4c0.1-0.1,0.2-0.1,0.3-0.1c0.1,0,0.1,0,0.1-0.1v0.1c0.3-0.1,0.6-0.2,0.9-0.2h0.8
				c0.6,0,1,0.2,1.2,0.5c0.2,0.4,0.5,0.8,0.8,1.3c1,1.7,1.9,3.5,2.6,5.4c0.7,1.9,1.3,3.8,1.8,5.8c0.4,1.4,0.7,2.7,0.9,4.1
				c0.2,1.4,0.5,2.7,0.7,4.1c0,0.1,0,0.2,0,0.3c0,0.1,0.1,0.2,0.1,0.5c0.2-0.4,0.4-0.8,0.5-1.1s0.3-0.6,0.4-0.9c1-2.4,2.3-4.7,4-7
				c1.4-1.8,2.7-3.5,4.1-5.2c1.4-1.7,3-3.3,4.8-4.7c0.4-0.3,0.7-0.6,1.1-0.9c0.4-0.3,0.8-0.6,1.2-1c0.9-0.7,1.9-1.2,3-1.4
				c1.1-0.2,2.2-0.2,3.3-0.1c0.5,0.1,0.9,0.2,1.2,0.5c0.3,0.3,0.6,0.7,0.9,1c1.1,1.4,1.9,2.9,2.4,4.5
				C704,216.1,704.3,217.8,704.6,219.5"/>
			<path class="st2" d="M735.7,199.4c-0.3-0.1-0.6-0.1-1.1-0.2c-0.4-0.1-0.8-0.1-1.1-0.1h-11.6c-0.9,0-1.8,0-2.7,0.1
				c-0.9,0.1-1.8,0.1-2.8,0c-0.5,0-0.9-0.1-1.4-0.2c-0.5-0.1-1-0.2-1.4-0.4c-0.4-0.2-0.8-0.4-1.2-0.6c-0.4-0.2-0.8-0.5-1.2-0.7
				c0.2-1.1,0.8-1.8,2-2c1.4-0.2,2.8-0.3,4.2-0.4c1.4-0.1,2.8-0.3,4.1-0.4c2.2-0.2,4.5-0.4,6.6-0.5c2.2-0.1,4.4-0.1,6.6,0
				c0.1,0,0.3,0,0.6,0c0.3,0,0.5-0.1,0.6-0.1c0.1-0.7,0.2-1.5,0.3-2.2c0.1-0.7,0.2-1.5,0.3-2.2c0.3-1.5,0.5-2.9,0.7-4.2
				c0.2-1.3,0.5-2.7,0.7-4.2c0.1-0.8,0.2-1.6,0.4-2.3c0.2-0.8,0.3-1.6,0.4-2.3v-0.7c-0.2-2,0.7-3.3,2.5-3.8c0.9-0.3,1.8-0.4,2.6-0.4
				c0.9,0,1.7,0.3,2.4,1c0.6,0.5,1.1,1.1,1.5,1.7c0.4,0.6,0.5,1.4,0.4,2.3c-0.1,0.7-0.1,1.5-0.1,2.3c0,0.8,0,1.5,0,2.3
				c0,1.6-0.1,3-0.3,4.4c-0.2,1.4-0.3,2.9-0.3,4.4v3.7h1.9c0.6,0,1.3,0,1.9,0.1c2.3,0,4.7,0.1,7,0.3c2.3,0.2,4.6,0.6,6.9,1.1
				c0.5,0.1,1,0.3,1.5,0.5c0.5,0.2,1,0.4,1.5,0.6c0.2,0.1,0.3,0.2,0.4,0.4c0.1,0.1,0.3,0.2,0.5,0.4c-0.5,0.6-1.1,0.9-1.6,1
				c-0.5,0.1-1.1,0.2-1.7,0.2c-1.2,0.1-2.4,0.1-3.5,0c-1.1,0-2.3,0-3.5,0.1c-1.7,0.1-3.4,0.2-5.1,0.4c-1.7,0.1-3.4,0.2-5.1,0.4
				c-0.2,0.1-0.3,0.1-0.5,0.1c-0.2,0-0.4,0.1-0.6,0.2v1.8c0,0.9,0,1.9,0,3.1c0,1.2,0,2.5,0,3.8c0,1.3,0,2.6,0,3.8c0,1.2,0,2.2,0,3.1
				v1.8v10.9c0,1.3,0,3.1,0.1,5.5c0.1,2.4,0.1,5.1,0.2,8.1c0.1,3,0.2,6.2,0.3,9.5c0.1,3.3,0.2,6.4,0.4,9.4c0.2,3,0.4,5.7,0.5,8.1
				c0.2,2.4,0.4,4.2,0.7,5.4c0.4,1.9,0.8,3.8,1.2,5.6c0.4,1.9,1,3.7,1.7,5.5c0.1,0.3,0.2,0.6,0.2,1c0.1,0.3,0.1,0.7,0.2,1
				c0.2,0.4,0.3,0.8,0.5,1.2c0.2,0.4,0.3,0.8,0.5,1.1c0.4,0.7,0.8,1.4,1.2,2.1c0.4,0.7,0.8,1.4,1.2,2.1c0.4,0.6,0.4,1.2,0.2,1.6
				c-0.2,0.4-0.7,0.8-1.4,1c-1.3,0.3-2.5,0.3-3.7,0.1c-1.2-0.2-2.4-0.5-3.6-0.9c-1.8-0.6-3.3-1.4-4.6-2.6c-1.2-1.2-2.3-2.6-3.2-4.3
				c-1.4-2.6-2.5-5.2-3.2-7.9c-0.8-2.7-1.4-5.4-2-8.2c-0.2-0.7-0.3-2-0.4-3.9c-0.1-1.9-0.2-4.1-0.3-6.6c-0.1-2.5-0.1-5.2-0.2-8
				s-0.1-5.5-0.2-8c-0.1-2.5-0.1-4.7-0.1-6.6v-3.9c0.1-2,0.1-3.9,0.1-5.8c0-1.9,0.1-3.8,0.2-5.7c0.1-0.6,0.1-1.5,0.2-2.8
				c0.1-1.2,0.2-2.6,0.3-4.1c0.1-1.5,0.2-3.1,0.3-4.8c0.1-1.7,0.2-3.3,0.3-4.8c0.1-1.5,0.2-2.9,0.3-4.1c0.1-1.2,0.1-2.1,0.2-2.8
				V199.4z"/>
		</g>
	</g>
</g>
</svg>
